<svg xmlns="http://www.w3.org/2000/svg" xmlns:xlink="http://www.w3.org/1999/xlink" width="859" height="511" viewBox="0 0 859 511">
  <defs>
    <clipPath id="clip-counts-img">
      <rect width="859" height="511"/>
    </clipPath>
  </defs>
  <g id="counts-img" clip-path="url(#clip-counts-img)">
    <g id="undraw_positive_attitude_xaae" transform="translate(0 0.001)">
      <path id="Path_366" data-name="Path 366" d="M813.692,435.236s-34.293-6.945-29.952,7.814,32.991,5.209,32.991,5.209Z" transform="translate(-219.522 -186.478)" fill="#ffb8b8"/>
      <path id="Path_367" data-name="Path 367" d="M896.641,331.617a3.217,3.217,0,0,1,5.336,1.839l1.172,6.808s5.3,27.23.762,44.527-7.757,40.081-20.018,42.509c-10.491,2.077-50.382-1.212-61.676-2.2a3.214,3.214,0,0,1-2.932-3.275l.211-9.936a3.219,3.219,0,0,1,2.877-3.133l45.672-4.871a3.213,3.213,0,0,0,2.846-2.75c1.086-7.77,4.6-31.86,8.089-44.525C881.8,346.371,891.062,336.707,896.641,331.617Z" transform="translate(-228.488 -160.815)" fill="#575a89"/>
      <rect id="Rectangle_90" data-name="Rectangle 90" width="315.178" height="1.501" transform="translate(537.303 501.472)" fill="#3f3d56"/>
      <path id="Path_368" data-name="Path 368" d="M850.822,614.608v20.836l11.72,2.6,7.814-3.907-.868-16.5Z" transform="translate(-212.346 -153.392)" fill="#ffb8b8"/>
      <path id="Path_369" data-name="Path 369" d="M943.086,614.608v20.836l11.721,2.6,7.813-3.907-.868-16.5Z" transform="translate(-235.372 -153.392)" fill="#ffb8b8"/>
      <path id="Path_370" data-name="Path 370" d="M905.686,493.3s-15.627,31.688-15.193,56.431a339.384,339.384,0,0,1-2.17,44.711l-7.814,74.229,25.177,1.3,11.72-79.872,22.573-61.641,8.682,73.361,2.17,73.8h21.7s9.984-69.888,4.341-85.515c0,0,13.023-87.686,2.6-92.027S905.686,493.3,905.686,493.3Z" transform="translate(-243.768 -201.376)" fill="#2f2e41"/>
      <path id="Path_371" data-name="Path 371" d="M877.9,735.76s-4.341-16.061-10.418-7.814-23.441,22.139-23.441,22.139-26.045,13.891-2.17,17.364,26.479-4.341,26.479-4.341,3.907-2.17,7.38-.868,18.666.868,19.534-4.341-4.775-33.859-6.511-28.65S877.9,735.76,877.9,735.76Z" transform="translate(-231.61 -259.351)" fill="#2f2e41"/>
      <path id="Path_372" data-name="Path 372" d="M992.765,736.824s0-4.775-8.248-5.209-9.55,5.209-9.55,5.209-2.17,2.17-2.6,8.682,0,23.441,0,23.441-3.907,13.023,13.891,10.418S997.54,763.3,997.54,763.3Z" transform="translate(-266.602 -260.849)" fill="#2f2e41"/>
      <path id="Path_373" data-name="Path 373" d="M955.422,277.532l-2.17,24.309-3.907,9.116,10.418,14.759,25.611-23.875s-4.775-13.023-1.736-20.4Z" transform="translate(-260.948 -147.526)" fill="#ffb8b8"/>
      <path id="Path_374" data-name="Path 374" d="M1003.919,325.7l-.2,2.14-7.62,81.2s-.3,3.777-.855,8.812c-.938,8.517-2.6,20.632-4.788,24.179a10.777,10.777,0,0,0-.868,10.418c-19.968,11.72-79-5.209-79-5.209l13.457-53.827s-12.152-56-10.849-61.206,28.65-23.875,28.65-23.875l.807,2.17c11.655,15.627,23.5,2.171,26.974-.868l6.945-6.077Z" transform="translate(-251.274 -154.023)" fill="#575a89"/>
      <path id="Path_375" data-name="Path 375" d="M756.77,495.5c-41.385,5.614-80.867,7.67-117.4,4.213a283.24,283.24,0,0,1-38.509-6.613c-23.229-5.5-51.743-5.5-83.071-2.571a238.438,238.438,0,0,0-55.917,11.859c-24.278,8.4-50.874,7.676-79.071.641a144.211,144.211,0,0,1-33.2-13.219c-20.614-11.078-45.012-7.067-71.6,5.69V396.442c24.824-10.811,49.008-12.556,72.423-3.443a153,153,0,0,0,26.371,7.867,207.86,207.86,0,0,0,97.969-4.424c43.051-14.587,88.084-10.053,133.689,0,50.809,10.732,100.329,11.364,148.318,0Z" transform="translate(-93.396 -174.878)" fill="#3f3d56"/>
      <rect id="Rectangle_91" data-name="Rectangle 91" width="315.178" height="1.501" transform="translate(0 501.472)" fill="#3f3d56"/>
      <rect id="Rectangle_92" data-name="Rectangle 92" width="27.367" height="27.367" transform="translate(413.777 23.7) rotate(150)" fill="#ff6584"/>
      <rect id="Rectangle_93" data-name="Rectangle 93" width="27.367" height="27.367" transform="translate(325.978 143.016) rotate(150)" fill="#3f3d56"/>
      <rect id="Rectangle_94" data-name="Rectangle 94" width="27.367" height="27.367" transform="translate(566.863 111.499) rotate(150)" fill="#d0cde1"/>
      <path id="Path_376" data-name="Path 376" d="M169.141,411.895l14.331,66.346L139.949,575.9l25.477,11.147,48.83-111.992L183.041,376.7l-18.577,4.777Z" transform="translate(-34.928 -94.016)" fill="#2f2e41"/>
      <path id="Path_377" data-name="Path 377" d="M193.875,495.634a57.969,57.969,0,0,0,16.984,17.515c11.677,7.961,36.092,60.507,36.092,60.507L220.414,679.81l36.623,10.085,20.169-124.73-41.4-93.414Z" transform="translate(-72.4 -195.999)" fill="#2f2e41"/>
      <path id="Path_378" data-name="Path 378" d="M174.967,741.488s-5.308,5.838-3.185,10.085,3.185,15.392,3.185,15.392h4.777V754.226l15.392,14.331s35.561,3.185,35.03,0-21.231-10.615-21.231-10.615l-10.085-15.392Z" transform="translate(-66.761 -263.319)" fill="#2f2e41"/>
      <path id="Path_379" data-name="Path 379" d="M237.208,743.349s-5.308,5.838-3.185,10.084,3.185,15.392,3.185,15.392h4.777V756.087l15.392,14.331s35.561,3.184,35.03,0S271.177,759.8,271.177,759.8l-10.085-15.392Z" transform="translate(-82.295 -263.783)" fill="#2f2e41"/>
      <circle id="Ellipse_98" data-name="Ellipse 98" cx="20.169" cy="20.169" r="20.169" transform="translate(122.005 113.868)" fill="#a0616a"/>
      <path id="Path_380" data-name="Path 380" d="M192.3,284.319s-1.592,20.169-11.677,27.6-10.085,13.8-10.085,13.8L211.4,344.3l-9.553-20.169s-2.654-1.062,1.592-6.369,7.961-18.046,7.961-18.046Z" transform="translate(-66.575 -149.22)" fill="#a0616a"/>
      <path id="Path_381" data-name="Path 381" d="M230.056,437.79h0a114.315,114.315,0,0,1-37.685,21.876l-9.633,3.345s-20.37-24.722-10.084-44.2a30.516,30.516,0,0,1,8.837-10.477l-.212-.929-5.164-22.531-.462-2.017-15.392-3.715s-.048.016-.138.037c-1.152.3-8.959,1.736-3.047-16.491,3.933-12.128,6.785-23.675,8.392-30.734a7.491,7.491,0,0,1,9.264-5.583c4.929,1.351,11.051,3.918,14.721,8.717,6.9,9.023,8.294-.4,8.294-.4s19.306,21.63,18.245,31.183a37.972,37.972,0,0,0,.234,7.685v.011c.127,1.136.281,2.319.457,3.53,1.316,8.938,3.864,19.325,4.8,22.977.069.26.127.488.175.679.111.441.175.679.175.679Z" transform="translate(-62.669 -159.65)" fill="#575a89"/>
      <path id="Path_382" data-name="Path 382" d="M204.155,426.329l-4.246,14.331s-16.284-4.151-25.822-6.507a30.516,30.516,0,0,1,8.837-10.477l-.212-.929-5.164-22.531-.462-2.017-15.392-3.715s-.048.016-.138.037l-.924-6.937s26.538,1.592,28.131,7.961-1.592,12.738-3.185,13.8,0,0,3.185,1.592-1.062,0-3.185,3.185.531.531,1.062,2.123,0-.531-.531,2.123,2.123.531,2.654.531S204.155,426.329,204.155,426.329Z" transform="translate(-64.104 -174.992)" opacity="0.2"/>
      <path id="Path_383" data-name="Path 383" d="M211.735,433.9l34.5,9.023s18.577-19.108,28.661-13.269-18.046,19.108-18.046,19.108l-10.085,2.123-36.623-4.246Z" transform="translate(-76.46 -185.215)" fill="#a0616a"/>
      <path id="Path_384" data-name="Path 384" d="M160.633,384.754l2.123,15.923s-1.592,0,0,3.715,0,11.146,0,11.146-3.185.531-.531,2.123,5.308,5.838,4.246,7.431-3.185,3.715,1.592,4.777,31.846,7.961,31.846,7.961l4.246-14.331s-14.861-7.431-15.392-7.431-3.185,2.123-2.654-.531,1.062-.531.531-2.123-3.185,1.062-1.062-2.123,6.369-1.592,3.185-3.185-4.777-.531-3.185-1.592,4.777-7.431,3.185-13.8S160.633,384.754,160.633,384.754Z" transform="translate(-64.104 -174.286)" fill="#575a89"/>
      <path id="Path_385" data-name="Path 385" d="M205.138,324.3l1.6-2.543a5.309,5.309,0,0,0-1.668-7.321l-12.186-7.664a5.309,5.309,0,0,0-7.321,1.668l-1.6,2.543a5.3,5.3,0,0,0-4.513,2.478l-3.935,6.257a5.309,5.309,0,0,0,1.668,7.321L193.6,337.367a5.309,5.309,0,0,0,7.321-1.668l3.935-6.257a5.3,5.3,0,0,0,.278-5.141Z" transform="translate(-67.614 -154.621)" fill="#575a89"/>
      <path id="Path_386" data-name="Path 386" d="M206.965,272.584c1.128-1.648.634-3.938,1.441-5.764,1.268-2.868,5.007-3.457,8.138-3.646a23.987,23.987,0,0,1,6.233.168,5.984,5.984,0,0,1,4.247,3.239c.44.938.393-1.969.188-5.7a18.027,18.027,0,0,0-13.431-16.458l-.13-.034a34.182,34.182,0,0,0-11.577-1.349,15.1,15.1,0,0,0-10.287,4.946c-1.14,1.373-1.962,3.005-3.227,4.264-2.224,2.211-5.459,2.956-8.438,3.935a25.164,25.164,0,0,0-9.27,5.053,13.639,13.639,0,0,0-4.646,9.263c-.163,4.133,2.364,8.464,6.583,9.382a4.76,4.76,0,0,1,2.011.926c3.971,3.236-.725,6.409-.779,9.942-.045,2.948,3.19,4.949,6.131,5.158a11.867,11.867,0,0,0,12.044-9.1,24.738,24.738,0,0,0-.01-7.35c-.263-2.8,5.917-9.241,1.823-4.512a6.922,6.922,0,0,0-1.6,3.165c-.755,3.839,2.721,5.22,4.882,7.41a9.169,9.169,0,0,1,1.99,9.489,10.571,10.571,0,0,0,2.244-13.3c-.686-1.11-1.581-2.083-2.23-3.215-1.012-1.767-1.211-5.562,1.738-5.386C203.139,273.231,205.285,275.037,206.965,272.584Z" transform="translate(-65.493 -138.893)" fill="#2f2e41"/>
      <circle id="Ellipse_99" data-name="Ellipse 99" cx="22.139" cy="22.139" r="22.139" transform="translate(687.095 97.449)" fill="#ffb8b8"/>
      <path id="Path_387" data-name="Path 387" d="M1009.775,337.009l-7.614,81.2s-.3,3.777-.855,8.812c-16.161,3.863-60.786,6.815-60.786,6.815l-2.17-15.627,49.486-13.457s-6.077-33.859.868-47.75a107.393,107.393,0,0,0,4.557-10.386,15.068,15.068,0,0,1,16.513-9.613Z" transform="translate(-258.204 -162.322)" opacity="0.2"/>
      <path id="Path_388" data-name="Path 388" d="M934.629,441.85s-34.293-6.945-29.952,7.814,32.991,5.209,32.991,5.209Z" transform="translate(-249.705 -188.129)" fill="#ffb8b8"/>
      <path id="Path_389" data-name="Path 389" d="M997.674,330.172l13.457,2.17s9.55,26.045,7.814,43.843-1.3,40.8-13.023,45.145-64.245,7.814-64.245,7.814l-2.17-15.627,49.486-13.457s-6.077-33.859.868-47.75S997.674,330.172,997.674,330.172Z" transform="translate(-258.493 -160.664)" fill="#575a89"/>
      <path id="Path_390" data-name="Path 390" d="M949.954,228.658l-4.255-1.7s8.9-9.8,21.276-8.943l-3.481-3.833s8.51-3.407,16.247,5.536c4.067,4.7,8.772,10.227,11.706,16.453H996l-1.9,4.188,6.657,4.188-6.832-.752a23.4,23.4,0,0,1,.185,6.946,8.987,8.987,0,0,1-3.291,5.879h0s-5.277-10.923-5.277-12.627v4.259s-4.255-3.833-4.255-6.388l-2.321,2.981H963.493l2.321-3.833-8.9,1.278L960.4,237.6l-13.775,19.345S938.736,235.046,949.954,228.658Z" transform="translate(-259.597 -131.556)" fill="#2f2e41"/>
      <circle id="Ellipse_100" data-name="Ellipse 100" cx="81.046" cy="81.046" r="81.046" transform="translate(342.943 191.548)" fill="#178f09"/>
      <path id="Path_391" data-name="Path 391" d="M624.543,488.394c0,4.973-18.26,17.447-39.4,17.447S548,493.367,548,488.394s16.009,1.688,37.146,1.688S624.543,483.42,624.543,488.394Z" transform="translate(-160.782 -199.692)" fill="#d0cde1"/>
      <circle id="Ellipse_101" data-name="Ellipse 101" cx="9.005" cy="9.005" r="9.005" transform="translate(444.25 240.325)" fill="#3f3d56"/>
      <circle id="Ellipse_102" data-name="Ellipse 102" cx="9.005" cy="9.005" r="9.005" transform="translate(385.717 240.325)" fill="#3f3d56"/>
      <circle id="Ellipse_103" data-name="Ellipse 103" cx="4.503" cy="4.503" r="4.503" transform="translate(395.473 240.325)" fill="#d0cde1"/>
      <circle id="Ellipse_104" data-name="Ellipse 104" cx="4.503" cy="4.503" r="4.503" transform="translate(441.249 240.325)" fill="#d0cde1"/>
      <circle id="Ellipse_105" data-name="Ellipse 105" cx="32.268" cy="32.268" r="32.268" transform="translate(393.222 132.264)" fill="#178f09"/>
      <path id="Path_392" data-name="Path 392" d="M575.392,327.17c11.4,6.784,11.8,27.114,11.8,27.114s-18.067,9.331-29.463,2.547-11.8-27.114-11.8-27.114S564,320.386,575.392,327.17Z" transform="translate(-160.265 -159.298)" fill="#3f3d56"/>
      <path id="Path_393" data-name="Path 393" d="M629.006,352.3c-10.3,8.356-29.522,1.727-29.522,1.727s-2.526-20.177,7.773-28.533,29.522-1.727,29.522-1.727S639.306,343.941,629.006,352.3Z" transform="translate(-173.563 -158.442)" fill="#3f3d56"/>
    </g>
  </g>
</svg>
