<svg xmlns="http://www.w3.org/2000/svg" xmlns:xlink="http://www.w3.org/1999/xlink" width="678" height="647" viewBox="0 0 678 647">
  <defs>
    <linearGradient id="linear-gradient" x1="0.459" y1="0.999" x2="0.459" y2="-0.006" gradientUnits="objectBoundingBox">
      <stop offset="0" stop-color="gray" stop-opacity="0.251"/>
      <stop offset="0.54" stop-color="gray" stop-opacity="0.122"/>
      <stop offset="1" stop-color="gray" stop-opacity="0.102"/>
    </linearGradient>
    <clipPath id="clip-hero">
      <rect width="678" height="647"/>
    </clipPath>
  </defs>
  <g id="hero" clip-path="url(#clip-hero)">
    <rect id="Rectangle_89" data-name="Rectangle 89" width="129" height="220" transform="translate(516 39)" fill="#e6f3e5"/>
    <g id="Group_19" data-name="Group 19" transform="translate(29.746 41.288)">
      <ellipse id="Ellipse_20" data-name="Ellipse 20" cx="40.38" cy="7.023" rx="40.38" ry="7.023" transform="translate(160.465 219.443)" fill="#178f09" opacity="0.1"/>
      <g id="Group_18" data-name="Group 18" transform="translate(0 0)">
        <ellipse id="Ellipse_3" data-name="Ellipse 3" cx="149.229" cy="11.587" rx="149.229" ry="11.587" transform="translate(0 183.334)" fill="#178f09" opacity="0.1"/>
        <path id="Path_79" data-name="Path 79" d="M439.817,608.51l-62.567-.8.186-1.6,3.023-26.471h54.948l4.041,26.471.309,2.008Z" transform="translate(-260.107 -413.628)" fill="#d0d2d5"/>
        <path id="Path_80" data-name="Path 80" d="M439.758,657.029H408.535l-31.285-.4.186-1.6h62.012Z" transform="translate(-260.107 -462.156)" opacity="0.1"/>
        <rect id="Rectangle_1" data-name="Rectangle 1" width="83.024" height="2.005" transform="translate(106.714 193.268)" fill="#d0d2d5"/>
        <path id="Path_81" data-name="Path 81" d="M450.569,174.239a5.221,5.221,0,0,0-5.2-5.239H213.517a5.221,5.221,0,0,0-5.2,5.246V314.784H450.569Z" transform="translate(-181.62 -169)" fill="#3f3d56"/>
        <path id="Path_82" data-name="Path 82" d="M208.32,580.19v16.461a5.2,5.2,0,0,0,5.2,5.2H445.372a5.2,5.2,0,0,0,5.2-5.2V580.19Z" transform="translate(-181.62 -434.306)" fill="#d0d2d5"/>
        <rect id="Rectangle_2" data-name="Rectangle 2" width="223.397" height="126.339" transform="translate(36.728 8.813)" fill="#fff"/>
        <path id="Path_83" data-name="Path 83" d="M546.718,604.058a5.407,5.407,0,0,0,4.259-2.068h0a5.642,5.642,0,0,0,.421-.618l-2.974-.5,3.213.021a5.414,5.414,0,0,0,.1-4.287l-4.308,2.233,3.975-2.921a5.414,5.414,0,1,0-8.943,6.06h0a5.408,5.408,0,0,0,4.256,2.082Z" transform="translate(-397.69 -442.793)" fill="#178f09"/>
        <path id="Path_84" data-name="Path 84" d="M483.48,584.77l24.962,25.07-3.831-25.07Z" transform="translate(-329.037 -416.978)" opacity="0.1"/>
        <rect id="Rectangle_3" data-name="Rectangle 3" width="223.639" height="7.381" transform="translate(36.552 8.827)" fill="#444053" opacity="0.1"/>
        <rect id="Rectangle_4" data-name="Rectangle 4" width="67.381" height="4.491" rx="0.58" transform="translate(114.2 10.112)" fill="#178f09" opacity="0.3"/>
        <path id="Path_85" data-name="Path 85" d="M638.983,201.374h-.165l-.06-.053a1.365,1.365,0,0,0,.316-.874,1.327,1.327,0,1,0-1.324,1.338,1.37,1.37,0,0,0,.874-.32l.06.053v.165l1.029,1.029.305-.309Zm-1.233,0a.92.92,0,1,1,.655-.271.927.927,0,0,1-.655.271Z" transform="translate(-459.403 -188.551)" fill="#3f3d56"/>
        <ellipse id="Ellipse_21" data-name="Ellipse 21" cx="1.352" cy="1.352" rx="1.352" ry="1.352" transform="translate(39.221 11.166)" fill="#fa5959" opacity="0.8"/>
        <ellipse id="Ellipse_22" data-name="Ellipse 22" cx="1.352" cy="1.352" rx="1.352" ry="1.352" transform="translate(42.939 11.166)" fill="#fed253" opacity="0.8"/>
        <ellipse id="Ellipse_23" data-name="Ellipse 23" cx="1.352" cy="1.352" rx="1.352" ry="1.352" transform="translate(46.661 11.166)" fill="#8ccf4d" opacity="0.8"/>
        <path id="Path_88" data-name="Path 88" d="M659.748,603.066a3.354,3.354,0,0,0-.762-.846,10.122,10.122,0,0,1-2.626-5.664,57.794,57.794,0,0,0-1.1-6.254,20.62,20.62,0,0,0-1.236-3.044c-.351-.751-.794-2.223-1.436-2.749a.948.948,0,0,0-.442-.214,5.215,5.215,0,0,0-1.271-1.692,12.905,12.905,0,0,1-2.9-2.809,6.327,6.327,0,0,0-.678-1.155c-.453-.5-1.169-.7-1.587-1.229a3.53,3.53,0,0,1-.351-2.525,2.425,2.425,0,0,0-.751-2.363c-.449-.277-1.029-.249-1.5-.5A2.165,2.165,0,0,1,642.15,570c.014-.79.26-1.559.323-2.349.2-2.514-1.461-5.014-.822-7.451a15.154,15.154,0,0,1,1.208-2.584,5.393,5.393,0,0,0,.351-.892,12.552,12.552,0,0,0,3.42.825c-1.935-4.34-1.443-9.382-2.345-14.045l.116-.158a7.318,7.318,0,0,0,1.482-4.164c0-1.735-.811-3.357-1.176-5.056-.312-1.443-.3-2.953-.7-4.372a13.224,13.224,0,0,0-1.11-2.535q-.657-1.218-1.38-2.4-.674-2.233-1.352-4.466a21.586,21.586,0,0,0-2.511-6.018c-.449-.66-.586-2-1.278-2.4a3.093,3.093,0,0,0-1.826-.32,3.414,3.414,0,0,1-1.956-2.419,2.343,2.343,0,0,1,.07-.7h.119c1.545-.141,2.328-1.5,3.132-2.7,1.3-1.931.8-4.544,0-6.742a4.564,4.564,0,0,0-1.053-1.857c-1.127-1.053-2.911-.822-4.365-1.331-.488-.169-.945-.425-1.443-.544a4.318,4.318,0,0,0-2.862.537,28.478,28.478,0,0,1-2.637,1.373c-.927.351-2.072.629-2.3,1.58a1.756,1.756,0,0,0,.077.959,3.575,3.575,0,0,0,1.085,1.566,6.254,6.254,0,0,0,3.817,8.715c.267.428.516.864.744,1.31a4.32,4.32,0,0,1,.611,2.556,7.874,7.874,0,0,0-.7.86,16.545,16.545,0,0,0-2.107,4.695,49.752,49.752,0,0,0-1.7,6.415,48.21,48.21,0,0,0-2.525,5.478,12.36,12.36,0,0,1-3.294-.442l-2.964-.671a6.7,6.7,0,0,1-2.914-1.169c-.428-.351-.762-.818-1.2-1.166s-1.31-.755-1.787-.467a1.406,1.406,0,0,0-.242.186c-.435-.881-.85-1.756-1.355-2.609a4.95,4.95,0,0,0-3.178-2.514,3.234,3.234,0,0,0-2.384.555,1.921,1.921,0,0,0-.7,2.556,4.666,4.666,0,0,0,.488.5,10.254,10.254,0,0,1,1.085,1.506,7.693,7.693,0,0,0,4.737,3.076l-.123.351a5.409,5.409,0,0,0-.646,2.37l13.181,4.512a8.123,8.123,0,0,0,2.655.586,4.285,4.285,0,0,0,1.053-.141v.7c.035,4.631-.7,9.231-.839,13.859a3.6,3.6,0,0,0,.534,2.416,2.7,2.7,0,0,0,2.581.7,6.012,6.012,0,0,0,.653-.147,24.333,24.333,0,0,1,.674,3.55l.871,6.271a9.527,9.527,0,0,1,.137,1.945,13.713,13.713,0,0,1-1.44,4.147,4.909,4.909,0,0,0-.158,4.256c.232.393.551.727.758,1.134a4.615,4.615,0,0,1,.351,1.994q.081,2.837.154,5.681a.643.643,0,0,0-.442.088c-.73.569-.65,3.276-.7,4.115-.056,1.4,0,2.837-.077,4.256a25.349,25.349,0,0,1-.917,5.65,3.613,3.613,0,0,1-.8,1.619,3.421,3.421,0,0,1-1.429.741,16.322,16.322,0,0,1-5.411.737,5.326,5.326,0,0,0-2.2.186,1.516,1.516,0,0,0-.994,1.756,2.214,2.214,0,0,0,1.45,1.092,23.008,23.008,0,0,1,3.862,1.777,10.449,10.449,0,0,0,1.492.846,7.7,7.7,0,0,0,1.538.379l6.226,1.074c1.275.218,2.809.351,3.62-.7a3.191,3.191,0,0,0,.481-2.065,27.59,27.59,0,0,1-.133-4.238,13.044,13.044,0,0,1,.653-2.433q.93-2.763,1.868-5.523a29.026,29.026,0,0,0,1.5-5.65,2.106,2.106,0,0,0-.456-1.942,1.245,1.245,0,0,0-.464-.239c-.021-1.692-.242-3.388-.147-5.081.025-.421.067-.843.1-1.268a6.187,6.187,0,0,1,.867,1.025c.6.941.822,2.184,1.738,2.809.779.534,1.935.506,2.482,1.278a3.6,3.6,0,0,1,.393.952,6.786,6.786,0,0,0,1.4,2.23,11.241,11.241,0,0,0,.867,2.226q.776,1.64,1.545,3.269a38.122,38.122,0,0,0,1.756,3.43,9.673,9.673,0,0,1,1.176,2.268,5.21,5.21,0,0,1-1.591,4.916,13.673,13.673,0,0,1-4.624,2.7,1.3,1.3,0,0,0-.471.281.91.91,0,0,0-.214.611,1.982,1.982,0,0,0,1.432,1.756,5.359,5.359,0,0,0,2.4.088,35.616,35.616,0,0,0,12.928-3.82,4.564,4.564,0,0,0,1.542-1.19,1.8,1.8,0,0,0,.256-1.829Z" transform="translate(-435.951 -378.53)" fill="url(#linear-gradient)"/>
        <path id="Path_89" data-name="Path 89" d="M708.467,571.559q1.124,1.724,2.107,3.532a12.986,12.986,0,0,1,1.113,2.518c.407,1.4.4,2.9.7,4.336.351,1.685,1.173,3.294,1.173,5.021a7.22,7.22,0,0,1-1.482,4.129,19.6,19.6,0,0,1-3.1,3.2A65.878,65.878,0,0,1,704.6,572.8a7.541,7.541,0,0,1,.33-3.02c.228-.6,1.324-2.233,2.029-1.591.256.235.323,1.3.481,1.65a12.665,12.665,0,0,0,1.025,1.72Z" transform="translate(-503.634 -426.435)" fill="#2f2e41"/>
        <path id="Path_90" data-name="Path 90" d="M708.467,571.559q1.124,1.724,2.107,3.532a12.986,12.986,0,0,1,1.113,2.518c.407,1.4.4,2.9.7,4.336.351,1.685,1.173,3.294,1.173,5.021a7.22,7.22,0,0,1-1.482,4.129,19.6,19.6,0,0,1-3.1,3.2A65.878,65.878,0,0,1,704.6,572.8a7.541,7.541,0,0,1,.33-3.02c.228-.6,1.324-2.233,2.029-1.591.256.235.323,1.3.481,1.65a12.665,12.665,0,0,0,1.025,1.72Z" transform="translate(-503.634 -426.435)" opacity="0.1"/>
        <path id="Path_91" data-name="Path 91" d="M388.007,423.4c-2.777,2.774-3.111,4-4.779,4.547s-7.669,3.659-5.783,7.1l5.07,3.35.147.1.776,2.331-7.669,13.652s-12.641-5.78-13.88,2.77-.453,10.885-.786,15.45.109,5.885-1,5.885-1.552-3-1.552-3-.07-.137-.193-.393c-1.654-3.438-12.879-28.673,5.1-46.019,0,0,8.329-.548,10.334-10.1,1.383-6.6,6.222-6.032,9.438-4.688a10.668,10.668,0,0,1,2.886,1.7,14.215,14.215,0,0,1,2.068,2.458C389.1,419.995,389.6,421.81,388.007,423.4Z" transform="translate(-275.745 -326.546)" fill="#d0d2d5"/>
        <path id="Path_92" data-name="Path 92" d="M390.42,484.481l.776,2.332-7.669,13.652s-12.641-5.78-13.88,2.77-.453,10.885-.786,15.45.109,5.885-1,5.885-1.552-3-1.552-3-.07-.137-.193-.393c-.558-4.27-3.388-29.245,6.872-27.918,0,0,8.325,3.891,9.656,2.339,1.053-1.229,5.73-8.3,7.633-11.2Z" transform="translate(-283.502 -372.388)" opacity="0.1"/>
        <path id="Path_93" data-name="Path 93" d="M424.242,420.07l-5.07,5.762s-5.888,7.879-7.11,7.546a5.7,5.7,0,0,0-1.113-.13,2.163,2.163,0,0,1-1.4-3.645c2.008-2.107,5.709-6.106,5.952-6.994a61.333,61.333,0,0,1,3.778-6.689,10.666,10.666,0,0,1,2.886,1.7A14.214,14.214,0,0,1,424.242,420.07Z" transform="translate(-311.804 -328.334)" opacity="0.1"/>
        <path id="Path_94" data-name="Path 94" d="M572.61,551.244c-.86,1.721-5.267,8.174-7.195,10.994l-.9,1.327s-.351,2.332-6.106-.558-140.97-59.944-140.97-59.944l-.916-2.753,6.671-9.99,148.2,57.258S573.723,549.021,572.61,551.244Z" transform="translate(-316.716 -375.923)" fill="#454b69"/>
        <path id="Path_95" data-name="Path 95" d="M565.415,580.7l-.9,1.327s-.351,2.331-6.106-.558-140.97-59.944-140.97-59.944l-.916-2.753Z" transform="translate(-316.716 -394.348)" opacity="0.1"/>
        <path id="Path_96" data-name="Path 96" d="M598.844,588.814a4.927,4.927,0,0,0-3.964.776,3.262,3.262,0,0,0-1.138,2.163c-.091.973.474,2.128,1.45,2.2a4.612,4.612,0,0,0,.7-.046,10.491,10.491,0,0,1,1.84.155,7.51,7.51,0,0,0,6.4-2.584c.839-1.053-.267-1.51-1.257-1.721C601.523,589.471,600.2,589.032,598.844,588.814Z" transform="translate(-431.705 -439.917)" fill="#fbbebe"/>
        <path id="Path_97" data-name="Path 97" d="M672.688,662.88l.871,6.187a9.421,9.421,0,0,1,.133,1.935,13.632,13.632,0,0,1-1.436,4.112c-.558,1.348-.9,2.963-.158,4.214.228.39.548.723.755,1.127a4.536,4.536,0,0,1,.351,1.977l.239,8.778a55.251,55.251,0,0,0,8.139-.046.454.454,0,0,0,.295-.091.478.478,0,0,0,.1-.32c.119-2.054-.239-4.112-.123-6.166.042-.751.147-1.5.161-2.254.042-3.058-1.468-6.053-1.011-9.077a20.028,20.028,0,0,1,.562-2.258c1.443-5.267,1.138-10.8.818-16.24a.383.383,0,0,0-.07-.246.373.373,0,0,0-.19-.1,9.99,9.99,0,0,0-9.052,1.721c-.383.309-1.348.607-1.6.976-.351.513.109,1.025.313,1.57A19.974,19.974,0,0,1,672.688,662.88Z" transform="translate(-482.065 -481.533)" fill="#3f3d56"/>
        <path id="Path_98" data-name="Path 98" d="M672.688,662.88l.871,6.187a9.421,9.421,0,0,1,.133,1.935,13.632,13.632,0,0,1-1.436,4.112c-.558,1.348-.9,2.963-.158,4.214.228.39.548.723.755,1.127a4.536,4.536,0,0,1,.351,1.977l.239,8.778a55.251,55.251,0,0,0,8.139-.046.454.454,0,0,0,.295-.091.478.478,0,0,0,.1-.32c.119-2.054-.239-4.112-.123-6.166.042-.751.147-1.5.161-2.254.042-3.058-1.468-6.053-1.011-9.077a20.028,20.028,0,0,1,.562-2.258c1.443-5.267,1.138-10.8.818-16.24a.383.383,0,0,0-.07-.246.373.373,0,0,0-.19-.1,9.99,9.99,0,0,0-9.052,1.721c-.383.309-1.348.607-1.6.976-.351.513.109,1.025.313,1.57A19.974,19.974,0,0,1,672.688,662.88Z" transform="translate(-482.065 -481.533)" opacity="0.1"/>
        <path id="Path_99" data-name="Path 99" d="M697.409,657.053a15.22,15.22,0,0,0-1.208,2.563c-.639,2.419,1.015,4.916.818,7.395-.063.783-.306,1.545-.323,2.328a2.172,2.172,0,0,0,.966,2.015c.467.239,1.053.214,1.492.488a2.409,2.409,0,0,1,.751,2.346,3.437,3.437,0,0,0,.351,2.5c.418.523,1.134.727,1.583,1.222a6.023,6.023,0,0,1,.678,1.145c.671,1.173,1.9,1.889,2.9,2.809s1.854,2.268,1.4,3.543a3.908,3.908,0,0,1-2.149,1.949,22.8,22.8,0,0,1-5.116,1.808,1.236,1.236,0,0,1-.586.032,1.252,1.252,0,0,1-.513-.351,9.525,9.525,0,0,1-2.584-3.444,3.537,3.537,0,0,0-.393-.941c-.548-.769-1.7-.741-2.482-1.271-.913-.622-1.134-1.854-1.731-2.784a31.192,31.192,0,0,0-2.107-2.3c-1.074-1.362-1.338-3.181-2.107-4.737-.326-.66-.744-1.278-1-1.966a10.737,10.737,0,0,1-.481-2.542c-.5-4.1-1.756-8.23-.962-12.289.176-.892.446-1.756.558-2.676.193-1.591-.112-3.22.123-4.807a1.324,1.324,0,0,1,.53-1.022,1.406,1.406,0,0,1,.6-.123,41.178,41.178,0,0,1,6.243.14,3.871,3.871,0,0,1,2.865,1.176,6.284,6.284,0,0,1,.681,2.619,6.463,6.463,0,0,0,1.359,2.567A2.433,2.433,0,0,1,697.409,657.053Z" transform="translate(-490.504 -477.571)" fill="#3f3d56"/>
        <path id="Path_100" data-name="Path 100" d="M660.483,752.564a2.464,2.464,0,0,1,1.6.316,2.109,2.109,0,0,1,.456,1.928,28.946,28.946,0,0,1-1.5,5.618l-1.868,5.481a12.866,12.866,0,0,0-.653,2.416,27.271,27.271,0,0,0,.133,4.214,3.3,3.3,0,0,1-.484,2.047c-.794,1.022-2.342.9-3.617.7l-6.218-1.053a7.393,7.393,0,0,1-1.538-.376,10.742,10.742,0,0,1-1.492-.839,22.978,22.978,0,0,0-3.862-1.756c-.583-.218-1.236-.495-1.447-1.081a1.516,1.516,0,0,1,.994-1.756,5.381,5.381,0,0,1,2.2-.19,16.505,16.505,0,0,0,5.407-.73,3.42,3.42,0,0,0,1.426-.737,3.51,3.51,0,0,0,.822-1.654,24.629,24.629,0,0,0,.941-5.618c.074-1.4.025-2.809.081-4.214.035-.832-.046-3.511.685-4.084.558-.428,2.855.755,3.61.927A17.553,17.553,0,0,0,660.483,752.564Z" transform="translate(-461.679 -544.549)" fill="#2f2e41"/>
        <path id="Path_101" data-name="Path 101" d="M730.8,755.34a60.035,60.035,0,0,1,1.1,6.208,10.1,10.1,0,0,0,2.623,5.618,3.468,3.468,0,0,1,.762.843,1.777,1.777,0,0,1-.263,1.836,4.61,4.61,0,0,1-1.542,1.183,35.757,35.757,0,0,1-12.925,3.8,5.446,5.446,0,0,1-2.395-.088,1.975,1.975,0,0,1-1.429-1.756.9.9,0,0,1,.211-.607,1.311,1.311,0,0,1,.474-.277,13.978,13.978,0,0,0,4.621-2.679,5.12,5.12,0,0,0,1.591-4.867,9.627,9.627,0,0,0-1.183-2.251,38.06,38.06,0,0,1-1.756-3.4l-1.545-3.241a8.5,8.5,0,0,1-.987-2.971,14.255,14.255,0,0,0,5.7-.913,8.96,8.96,0,0,0,2.342-1.4c.6-.5,1.141-1.429,1.945-.78.646.52,1.053,1.984,1.433,2.725A20.016,20.016,0,0,1,730.8,755.34Z" transform="translate(-511.513 -543.421)" fill="#2f2e41"/>
        <path id="Path_102" data-name="Path 102" d="M679.17,532.564c.154,1.348,1.461,2.237,2.707,2.77l-7.89,2.518a3.553,3.553,0,0,0-.407-3.16,17.9,17.9,0,0,0-1.4-2.251c-.077-.109-.165-.246-.109-.372a.393.393,0,0,1,.221-.172,19.842,19.842,0,0,1,5.067-1.735c.513-.074,1.482-.277,1.865.242S679.1,531.942,679.17,532.564Z" transform="translate(-482.522 -402.045)" fill="#fbbebe"/>
        <path id="Path_103" data-name="Path 103" d="M679.17,532.564c.154,1.348,1.461,2.237,2.707,2.77l-7.89,2.518a3.553,3.553,0,0,0-.407-3.16,17.9,17.9,0,0,0-1.4-2.251c-.077-.109-.165-.246-.109-.372a.393.393,0,0,1,.221-.172,19.842,19.842,0,0,1,5.067-1.735c.513-.074,1.482-.277,1.865.242S679.1,531.942,679.17,532.564Z" transform="translate(-482.522 -402.045)" opacity="0.1"/>
        <ellipse id="Ellipse_24" data-name="Ellipse 24" cx="6.187" cy="6.187" rx="6.187" ry="6.187" transform="translate(185.876 119.176)" fill="#fbbebe"/>
        <path id="Path_104" data-name="Path 104" d="M663.022,587.408a2.733,2.733,0,0,0,2.581.7c2.159-.351,3.926-1.942,6.039-2.514,2.591-.7,5.334.2,7.781,1.306s4.881,2.458,7.556,2.648c-2.419-5.393-1.036-11.882-3.35-17.321a13.888,13.888,0,0,1-1.482-4.052c-.158-1.787.734-3.511.871-5.288a12.866,12.866,0,0,0-.808-4.67l-1.692-5.562a21.3,21.3,0,0,0-2.507-5.969c-.453-.657-.59-1.987-1.278-2.384-1.5-.867-3.782.225-5.411.284a5.649,5.649,0,0,0-4.066,2.528,16.252,16.252,0,0,0-2.107,4.659,44.3,44.3,0,0,0-1.872,7.454c-.053.379-.1.758-.133,1.141-.351,3.606.162,7.233.19,10.857v.025c.035,4.6-.7,9.164-.839,13.757A3.671,3.671,0,0,0,663.022,587.408Z" transform="translate(-476.321 -410.758)" fill="#2f2e41"/>
        <path id="Path_105" data-name="Path 105" d="M664.346,577.961a7.923,7.923,0,0,0,3.248-1.945,13.582,13.582,0,0,0,2.156-2.458,17.514,17.514,0,0,0,1.857-3.887,45.429,45.429,0,0,0,2.458-11.331,4.328,4.328,0,0,0-.509-3.02,2.542,2.542,0,0,0-3.072-.744,5.091,5.091,0,0,0-1.865,2A25.89,25.89,0,0,0,666,561.433c-.281.765-.488,1.552-.762,2.321a21.417,21.417,0,0,1-.962,2.223c-.053.379-.1.758-.133,1.141C663.819,570.724,664.318,574.337,664.346,577.961Z" transform="translate(-477.322 -417.614)" opacity="0.1"/>
        <path id="Path_106" data-name="Path 106" d="M642.895,553.377a4.352,4.352,0,0,1,.513,3.016,45.364,45.364,0,0,1-2.458,11.331,17.356,17.356,0,0,1-1.858,3.919,13.715,13.715,0,0,1-2.156,2.458,6.727,6.727,0,0,1-4.266,2.075,8.13,8.13,0,0,1-2.655-.579l-13.185-4.487a5.335,5.335,0,0,1,.646-2.353l.7-2.082a2.648,2.648,0,0,1,.955-1.51c.523-.313,1.352.116,1.787.463s.766.8,1.194,1.159a6.744,6.744,0,0,0,2.914,1.159l2.96.664a12.363,12.363,0,0,0,3.294.439c.825-2.521,2.395-4.74,3.283-7.24.274-.765.481-1.555.765-2.321a25.8,25.8,0,0,1,2.616-4.853,5.087,5.087,0,0,1,1.865-2A2.539,2.539,0,0,1,642.895,553.377Z" transform="translate(-446.679 -416.355)" fill="#2f2e41"/>
        <path id="Path_107" data-name="Path 107" d="M668.729,507.919a3.119,3.119,0,0,0-.372-1.159.972.972,0,0,0-1.053-.463c-.618.193-.825,1.148-1.471,1.18-.435.021-.748-.421-.885-.836a2.548,2.548,0,0,0-.537-1.18,2,2,0,0,0-.766-.351c-1.5-.474-3.048-1.348-3.546-2.841a1.7,1.7,0,0,1-.081-.952c.228-.945,1.4-1.229,2.3-1.57s1.756-.923,2.633-1.366a4.327,4.327,0,0,1,2.862-.53,14.906,14.906,0,0,1,1.443.537c1.454.506,3.234.27,4.361,1.32a4.5,4.5,0,0,1,1.053,1.84c.786,2.184,1.285,4.775-.018,6.692-.8,1.183-1.584,2.535-3.128,2.679C669.726,511.072,669.013,509.443,668.729,507.919Z" transform="translate(-474.693 -381.179)" fill="#2f2e41"/>
        <g id="Group_8" data-name="Group 8" transform="translate(185.304 118.987)" opacity="0.1">
          <path id="Path_108" data-name="Path 108" d="M666.009,510.291a2.578,2.578,0,0,0-.534-1.18,2,2,0,0,0-.765-.351c-1.5-.474-3.048-1.348-3.55-2.841a1.732,1.732,0,0,1-.077-.952,1.191,1.191,0,0,1,.186-.418,1.84,1.84,0,0,0-1.211,1.162,1.7,1.7,0,0,0,.081.951c.5,1.492,2.047,2.367,3.546,2.841a2,2,0,0,1,.766.351,2.567,2.567,0,0,1,.537,1.18c.14.418.449.857.885.836s.646-.418.923-.751A1.118,1.118,0,0,1,666.009,510.291Z" transform="translate(-660.023 -504.55)"/>
          <path id="Path_109" data-name="Path 109" d="M686.57,524.492c-1.8.165-2.518-1.478-2.809-2.992a3.054,3.054,0,0,0-.351-1.159.976.976,0,0,0-1.053-.463,1.868,1.868,0,0,0-.776.7,1.053,1.053,0,0,1,.794.492,3.118,3.118,0,0,1,.372,1.159c.284,1.513,1,3.16,2.809,2.992a2.9,2.9,0,0,0,1.854-.962A2.619,2.619,0,0,1,686.57,524.492Z" transform="translate(-674.011 -514.481)"/>
        </g>
      </g>
    </g>
    <g id="undraw_personal_finance_tqcd" transform="translate(29.321 395.939)">
      <path id="Path_128" data-name="Path 128" d="M827.288,604.414s29.524,1.526,22.647,10.82-24.947-5.452-24.947-5.452Z" transform="translate(-644.365 -445.836)" fill="#ffb8b8"/>
      <path id="Path_129" data-name="Path 129" d="M631.958,313.448l6.009,1.5s3.506,10.517,6.01,20.032,7.512,38.06,7.512,38.06l38.825,27.21-4.631,10.359-51.722-20.384L622.443,345Z" transform="translate(-501.574 -243.395)" fill="#575a89"/>
      <path id="Path_130" data-name="Path 130" d="M438.757,291.607l-2.24,46.9,4.674,13.945L427.5,342.416Z" transform="translate(-301.571 -202.887)" opacity="0.2"/>
      <path id="Path_131" data-name="Path 131" d="M539.924,633.523s6.51,17.528,7.512,29.547,2,21.534,2,21.534H518.891l-6.01-9.014V684.6H477.325s-10.016-32.551-6.009-36.558,42.067-21.033,42.067-21.033Z" transform="translate(-394.065 -461.559)" fill="#2f2e41"/>
      <rect id="Rectangle_13" data-name="Rectangle 13" width="169.614" height="0.608" transform="translate(30.881 222.589)" fill="#3f3d56"/>
      <circle id="Ellipse_45" data-name="Ellipse 45" cx="19.03" cy="19.03" r="19.03" transform="translate(88.815 12.963)" fill="#ffb8b8"/>
      <path id="Path_132" data-name="Path 132" d="M521.892,214.688l-1.5,22.035,19.03,25.54,9.515-24.038s-8.513-5.509-3.506-17.027Z" transform="translate(-428.524 -174.682)" fill="#ffb8b8"/>
      <path id="Path_133" data-name="Path 133" d="M508.767,380.9c0,4.509-12.52,11.519-12.52,11.519v2.5l-5.008,2.5-11.017-22.034-3,24.035s-22.037,3.508-29.046,0-10.518-2-20.534-5.507,4.007-50.581,4.007-50.581l-10.016-72.614,21.881-10.941,1.153-.578,3.009-.554,4.612-.852,15.416,10.42,1.241,6.511.764,4.007,4-4.509,3.024-9.946,21.516,11.951-6.009,48.074S508.767,376.392,508.767,380.9Z" transform="translate(-359.646 -204.678)" fill="#575a89"/>
      <path id="Path_134" data-name="Path 134" d="M454.62,713.428s23.036,18.529,12.019,22.035-17.027-19.03-17.027-19.03Z" transform="translate(-378.449 -521.683)" fill="#ffb8b8"/>
      <path id="Path_135" data-name="Path 135" d="M392.281,301.282l-5.008-1s-7.512,4.006-8.013,12.019-7.011,64.1-7.011,64.1l21.033,56.589,17.027-6.51L393.784,373.4l12.52-46.073Z" transform="translate(-324.001 -234.233)" fill="#575a89"/>
      <ellipse id="Ellipse_46" data-name="Ellipse 46" cx="1.825" cy="1.825" rx="1.825" ry="1.825" transform="translate(108.112 78.68)" fill="#2f2e41"/>
      <ellipse id="Ellipse_47" data-name="Ellipse 47" cx="1.825" cy="1.825" rx="1.825" ry="1.825" transform="translate(108.112 90.546)" fill="#2f2e41"/>
      <ellipse id="Ellipse_48" data-name="Ellipse 48" cx="1.825" cy="1.825" rx="1.825" ry="1.825" transform="translate(118.141 168.737)" fill="#2f2e41"/>
      <path id="Path_136" data-name="Path 136" d="M508.864,95.694l-3.518-1.408s7.355-8.1,17.589-7.394l-2.878-3.169s7.036-2.817,13.432,4.577c3.362,3.887,7.252,8.455,9.678,13.6h3.767l-1.572,3.462,5.5,3.462-5.648-.622a19.343,19.343,0,0,1,.153,5.743,7.43,7.43,0,0,1-2.721,4.861h0s-4.363-9.03-4.363-10.439v3.521s-3.518-3.169-3.518-5.281l-1.919,2.465H520.057l1.919-3.169-7.355,1.056,2.878-3.873-11.388,15.993S499.59,100.975,508.864,95.694Z" transform="translate(-417.164 -83.197)" fill="#2f2e41"/>
      <circle id="Ellipse_49" data-name="Ellipse 49" cx="30.425" cy="30.425" r="30.425" transform="translate(170.647 86.267)" fill="#3f3d56"/>
      <ellipse id="Ellipse_50" data-name="Ellipse 50" cx="26.165" cy="26.165" rx="26.165" ry="26.165" transform="translate(174.907 90.527)" opacity="0.1"/>
      <path id="Path_137" data-name="Path 137" d="M876.465,446.7V442.89a8.843,8.843,0,0,1-5.078-1.659l.8-2.526a8.118,8.118,0,0,0,4.78,1.621,3.661,3.661,0,0,0,3.95-3.7c0-2.074-1.294-3.356-3.751-4.487-3.386-1.508-5.477-3.243-5.477-6.523a5.928,5.928,0,0,1,5.012-6.071v-3.808h2.058V419.4a8.076,8.076,0,0,1,4.315,1.32l-.83,2.489a7.335,7.335,0,0,0-4.182-1.282,3.186,3.186,0,0,0-3.518,3.243c0,1.961,1.228,2.941,4.116,4.3,3.419,1.584,5.145,3.544,5.145,6.9a6.31,6.31,0,0,1-5.244,6.41V446.7Z" transform="translate(-676.647 -314.566)" fill="#178f09"/>
      <path id="Path_138" data-name="Path 138" d="M250.005,501.345l12.168,38.01L252.437,499.8Z" transform="translate(-176.344 -347.74)" opacity="0.2"/>
      <path id="Path_139" data-name="Path 139" d="M233.328,312.8H225.6a1.271,1.271,0,0,1-1.27-1.27v-11.1a1.271,1.271,0,0,1,1.27-1.27h7.724a1.271,1.271,0,0,1,1.27,1.27v11.1A1.271,1.271,0,0,1,233.328,312.8ZM225.6,299.768a.662.662,0,0,0-.661.661v11.1a.662.662,0,0,0,.661.661h7.724a.662.662,0,0,0,.661-.661v-11.1a.662.662,0,0,0-.661-.661Z" transform="translate(-219.304 -233.454)" fill="#3f3d56"/>
      <path id="Path_140" data-name="Path 140" d="M280.553,285.2h-6.975a1.646,1.646,0,0,1-1.644-1.644V261.137a1.646,1.646,0,0,1,1.644-1.644h6.975a1.646,1.646,0,0,1,1.644,1.644V283.56A1.646,1.646,0,0,1,280.553,285.2Zm-6.975-25.1a1.037,1.037,0,0,0-1.036,1.036V283.56a1.037,1.037,0,0,0,1.035,1.036h6.975a1.037,1.037,0,0,0,1.036-1.036V261.137a1.037,1.037,0,0,0-1.036-1.036Z" transform="translate(-252.422 -205.856)" fill="#3f3d56"/>
      <path id="Path_141" data-name="Path 141" d="M327.885,259.814h-6.436a1.916,1.916,0,0,1-1.913-1.913V224.913A1.916,1.916,0,0,1,321.448,223h6.436a1.916,1.916,0,0,1,1.913,1.913V257.9A1.916,1.916,0,0,1,327.885,259.814Zm-6.436-36.205a1.306,1.306,0,0,0-1.3,1.3V257.9a1.306,1.306,0,0,0,1.3,1.3h6.436a1.306,1.306,0,0,0,1.3-1.3V224.913a1.306,1.306,0,0,0-1.305-1.3Z" transform="translate(-285.54 -180.465)" fill="#3f3d56"/>
      <rect id="Rectangle_14" data-name="Rectangle 14" width="5.793" height="9.413" transform="translate(7.265 67.82)" fill="#178f09"/>
      <rect id="Rectangle_15" data-name="Rectangle 15" width="5.793" height="21.361" transform="translate(21.748 55.873)" fill="#178f09"/>
      <rect id="Rectangle_16" data-name="Rectangle 16" width="5.793" height="32.464" transform="translate(36.23 44.77)" fill="#178f09"/>
      <path id="Path_142" data-name="Path 142" d="M837.57,133.682H797.105a.3.3,0,0,1-.3-.3V92.3a.3.3,0,1,1,.608,0v40.769H837.57a.3.3,0,1,1,0,.609Z" transform="translate(-624.753 -89.322)" fill="#3f3d56"/>
      <path id="Path_143" data-name="Path 143" d="M256.176,247.375H208.105a.3.3,0,0,1-.3-.3V199.3a.3.3,0,1,1,.608,0v47.462h47.767a.3.3,0,0,1,0,.609Z" transform="translate(-207.801 -163.767)" fill="#3f3d56"/>
      <path id="Path_144" data-name="Path 144" d="M823.133,185.27h-7.724a1.271,1.271,0,0,1-1.27-1.27V172.9a1.271,1.271,0,0,1,1.27-1.27h7.724a1.271,1.271,0,0,1,1.27,1.27V184a1.271,1.271,0,0,1-1.269,1.27Zm-7.724-13.034a.662.662,0,0,0-.661.661V184a.662.662,0,0,0,.661.661h7.724a.662.662,0,0,0,.661-.661V172.9a.662.662,0,0,0-.661-.661Z" transform="translate(-635.441 -144.723)" fill="#3f3d56"/>
      <path id="Path_145" data-name="Path 145" d="M875.825,163.265h-7.109a1.579,1.579,0,0,1-1.577-1.577v-20.11A1.579,1.579,0,0,1,868.716,140h7.109a1.579,1.579,0,0,1,1.577,1.577v20.111a1.579,1.579,0,0,1-1.577,1.577Zm-7.109-22.656a.97.97,0,0,0-.969.969v20.111a.97.97,0,0,0,.969.969h7.109a.97.97,0,0,0,.969-.969v-20.11a.97.97,0,0,0-.969-.969Z" transform="translate(-673.692 -122.718)" fill="#3f3d56"/>
      <rect id="Rectangle_17" data-name="Rectangle 17" width="5.793" height="9.413" transform="translate(180.841 29.125)" fill="#178f09"/>
      <rect id="Rectangle_18" data-name="Rectangle 18" width="5.793" height="18.213" transform="translate(195.683 19.808)" fill="#178f09"/>
      <circle id="Ellipse_51" data-name="Ellipse 51" cx="2.738" cy="2.738" r="2.738" transform="translate(181.076 18.195)" fill="#178f09"/>
      <circle id="Ellipse_52" data-name="Ellipse 52" cx="2.738" cy="2.738" r="2.738" transform="translate(195.779 7.851)" fill="#178f09"/>
    </g>
    <g id="Group_20" data-name="Group 20" transform="translate(420.485 387.365)">
      <circle id="Ellipse_67" data-name="Ellipse 67" cx="107.346" cy="107.346" r="107.346" transform="translate(8.114 4)" fill="#e6f1e4"/>
      <path id="Path_210" data-name="Path 210" d="M52.29,72.127A13.064,13.064,0,1,1,65.353,59.064,13.079,13.079,0,0,1,52.29,72.127Zm0-18.662a5.6,5.6,0,1,0,5.6,5.6A5.6,5.6,0,0,0,52.29,53.465Z" transform="translate(-27.112 -27.338)" fill="#178f09"/>
      <ellipse id="Ellipse_68" data-name="Ellipse 68" cx="4.226" cy="4.226" rx="4.226" ry="4.226" transform="translate(222.503 8.837)" fill="#178f09"/>
      <path id="Path_211" data-name="Path 211" d="M203.611,49.83a3.732,3.732,0,0,1-2.639-6.371l13.712-13.712a3.732,3.732,0,0,1,5.278,5.278L206.25,48.736A3.721,3.721,0,0,1,203.611,49.83Z" transform="translate(-37.858 -26.177)" fill="#178f09"/>
      <path id="Path_212" data-name="Path 212" d="M217.324,49.83a3.721,3.721,0,0,1-2.639-1.094L200.973,35.023a3.732,3.732,0,0,1,5.278-5.278l13.712,13.712a3.733,3.733,0,0,1-2.639,6.372Z" transform="translate(-37.858 -26.177)" fill="#178f09"/>
      <path id="Path_213" data-name="Path 213" d="M201.594,263.98H67.226v-30.7A35.036,35.036,0,0,1,87.545,201.3L134.41,180l46.865,21.3a35.036,35.036,0,0,1,20.319,31.977Z" transform="translate(-28.985 -36.301)" fill="#575a89"/>
      <path id="Path_214" data-name="Path 214" d="M201.326,267.445H66.958a3.733,3.733,0,0,1-3.732-3.732v-30.7a38.806,38.806,0,0,1,22.508-35.374l46.865-21.3a3.716,3.716,0,0,1,3.088,0l46.865,21.3a38.8,38.8,0,0,1,22.508,35.372v30.7a3.734,3.734,0,0,1-3.733,3.732ZM70.691,259.98h126.9V233.011a31.322,31.322,0,0,0-18.13-28.576l-45.321-20.6-45.321,20.6a31.326,31.326,0,0,0-18.13,28.578Z" transform="translate(-28.718 -36.033)" fill="#2f2e41"/>
      <path id="Path_215" data-name="Path 215" d="M138.157,200.395a14.929,14.929,0,0,1-14.93-14.93V178h29.86v7.465A14.93,14.93,0,0,1,138.157,200.395Z" transform="translate(-32.731 -36.167)" fill="#ffb8b8"/>
      <path id="Path_216" data-name="Path 216" d="M137.888,203.86A18.685,18.685,0,0,1,119.226,185.2v-7.465A3.733,3.733,0,0,1,122.958,174h29.86a3.733,3.733,0,0,1,3.732,3.732V185.2A18.684,18.684,0,0,1,137.888,203.86Zm-11.2-22.395V185.2a11.2,11.2,0,1,0,22.395,0v-3.732Z" transform="translate(-32.464 -35.9)" fill="#2f2e41"/>
      <path id="Path_217" data-name="Path 217" d="M183.868,118.455c-.274,0-.314-2.744-.269-5.88a11.709,11.709,0,0,0-8.833-11.565,148.97,148.97,0,0,0-78.63,2.545,7.712,7.712,0,0,0-5.36,7.62c.1,3.5.124,7.279-.22,7.279a9.331,9.331,0,0,0-9.325,9.672,9.564,9.564,0,0,0,4.417,7.353,8.313,8.313,0,0,0,7.867,1.112,51.891,51.891,0,0,0,34.924,39,26.067,26.067,0,0,0,15.994-.17l1.656-.537a51.9,51.9,0,0,0,34.687-38.331,8.518,8.518,0,0,0,7.811-.886,9.482,9.482,0,0,0,4.537-6.694,9.332,9.332,0,0,0-9.256-10.516Z" transform="translate(-29.922 -30.743)" fill="#ffb8b8"/>
      <ellipse id="Ellipse_69" data-name="Ellipse 69" cx="3.732" cy="3.732" rx="3.732" ry="3.732" transform="translate(122.221 98.91)" fill="#4c241d"/>
      <ellipse id="Ellipse_70" data-name="Ellipse 70" cx="3.732" cy="3.732" rx="3.732" ry="3.732" transform="translate(84.896 98.91)" fill="#4c241d"/>
      <path id="Path_219" data-name="Path 219" d="M115.226,101.671c8.387,9.576,41.057,33.592,70.916,14.93,0-3.732-.024-2.125,0-3.732a12.275,12.275,0,0,0-8.949-11.806C161.61,97.209,126.423,94.206,115.226,101.671Z" transform="translate(-32.196 -30.754)" fill="#6b4f5b"/>
      <path id="Path_221" data-name="Path 221" d="M187.734,97.719H83.226V88.388A50.388,50.388,0,0,1,133.614,38h3.732a50.388,50.388,0,0,1,50.388,50.388Z" transform="translate(-30.055 -26.803)" fill="#ffce56"/>
      <path id="Path_222" data-name="Path 222" d="M187.467,101.184H82.958a3.733,3.733,0,0,1-3.732-3.732V88.12A54.183,54.183,0,0,1,133.346,34h3.732A54.183,54.183,0,0,1,191.2,88.12v9.331A3.733,3.733,0,0,1,187.467,101.184ZM86.691,93.719h97.043v-5.6a46.708,46.708,0,0,0-46.656-46.656h-3.732A46.708,46.708,0,0,0,86.691,88.12Z" transform="translate(-29.788 -26.535)" fill="#4c241d"/>
      <path id="Path_223" data-name="Path 223" d="M95.507,116.682c8.516-2.255,16.987-10.475,22.674-17.1a154.022,154.022,0,0,0-17.893,4.323,6.979,6.979,0,0,0-4.842,6.913C95.507,112.888,95.549,115.132,95.507,116.682Z" transform="translate(-30.873 -30.922)" fill="#6b4f5b"/>
      <path id="Path_224" data-name="Path 224" d="M95.24,120.145a3.731,3.731,0,0,1-3.731-3.832c.04-1.495,0-3.656-.062-5.648a10.726,10.726,0,0,1,7.474-10.591,158.467,158.467,0,0,1,18.327-4.429,3.732,3.732,0,0,1,3.5,6.1c-5.97,6.951-15.073,15.763-24.551,18.272a3.721,3.721,0,0,1-.956.124Zm11.1-14.433q-2.657.708-5.224,1.5a3.248,3.248,0,0,0-2.211,3.235c.006.157.009.314.015.472a43.155,43.155,0,0,0,7.419-5.2Z" transform="translate(-30.605 -30.655)" fill="#6b4f5b"/>
      <path id="Path_225" data-name="Path 225" d="M183.734,108.93H86.691a7.465,7.465,0,0,1,0-14.93h97.043a7.465,7.465,0,0,1,0,14.93Z" transform="translate(-29.788 -30.549)" fill="#fc8c29"/>
      <path id="Path_226" data-name="Path 226" d="M183.467,112.395H86.423a11.2,11.2,0,1,1,0-22.395h97.043a11.2,11.2,0,1,1,0,22.395ZM86.423,97.465a3.732,3.732,0,0,0,0,7.465h97.043a3.732,3.732,0,1,0,0-7.465Z" transform="translate(-29.52 -30.281)" fill="#4c241d"/>
      <path id="Path_227" data-name="Path 227" d="M134.1,83.715a3.733,3.733,0,0,1-2.667-6.344l4.924-5.025-4.532-.147a3.732,3.732,0,0,1-2.792-6.065l10.19-12.706A3.733,3.733,0,0,1,145.05,58.1l-5.52,6.884,5.562.18a3.732,3.732,0,0,1,2.546,6.342L136.77,82.594a3.717,3.717,0,0,1-2.667,1.121Z" transform="translate(-33.065 -27.741)" fill="#4c241d"/>
      <path id="Path_228" data-name="Path 228" d="M250.273,51.984,221.379,96.93h16.053L224.59,132.244l32.1-44.946H243.852Z" transform="translate(-45.037 -27.738)" fill="#fc8c29"/>
      <path id="Path_230" data-name="Path 230" d="M69.4,164.569c0-10.516-8.766-19.04-19.579-19.04s-19.579,8.525-19.579,19.04a18.728,18.728,0,0,0,6.507,14.152A12.051,12.051,0,0,1,40.6,186.6l.836,7.893H58.214l.837-7.893a12.051,12.051,0,0,1,3.844-7.875A18.731,18.731,0,0,0,69.4,164.569Z" transform="translate(-26.512 -33.995)" fill="#fc8c29"/>
      <path id="Path_231" data-name="Path 231" d="M57.946,197.955H41.164a3.733,3.733,0,0,1-3.713-3.339l-.836-7.893a8.305,8.305,0,0,0-2.586-5.457A22.537,22.537,0,0,1,26.244,164.3c0-12.557,10.457-22.772,23.311-22.772S72.866,151.744,72.866,164.3a22.537,22.537,0,0,1-7.786,16.966,8.312,8.312,0,0,0-2.588,5.459l-.835,7.891a3.731,3.731,0,0,1-3.711,3.339ZM44.522,190.49H54.589l.481-4.555a15.723,15.723,0,0,1,5.105-10.293A15.079,15.079,0,0,0,65.4,164.3c0-8.44-7.109-15.307-15.846-15.307S33.711,155.862,33.711,164.3a15.079,15.079,0,0,0,5.227,11.341,15.712,15.712,0,0,1,5.1,10.291Z" transform="translate(-26.244 -33.728)" fill="#2f2e41"/>
      <path id="Path_232" data-name="Path 232" d="M50.691,212.93a7.465,7.465,0,0,1-7.465-7.465V198h14.93v7.465A7.465,7.465,0,0,1,50.691,212.93Z" transform="translate(-27.38 -37.505)" fill="#6b4f5b"/>
      <path id="Path_233" data-name="Path 233" d="M50.423,216.395a11.21,11.21,0,0,1-11.2-11.2v-7.465A3.733,3.733,0,0,1,42.958,194h14.93a3.733,3.733,0,0,1,3.732,3.732V205.2A11.209,11.209,0,0,1,50.423,216.395Zm-3.732-14.93V205.2a3.732,3.732,0,1,0,7.465,0v-3.732Z" transform="translate(-27.112 -37.237)" fill="#2f2e41"/>
      <path id="Path_234" data-name="Path 234" d="M246.424,265.987a11.2,11.2,0,0,1-11.2-11.2V210h22.395v44.789a11.2,11.2,0,0,1-11.2,11.2Z" transform="translate(-40.223 -38.308)" fill="#178f09"/>
      <path id="Path_235" data-name="Path 235" d="M246.156,269.452a14.947,14.947,0,0,1-14.93-14.93V209.732A3.733,3.733,0,0,1,234.958,206h22.395a3.733,3.733,0,0,1,3.732,3.732v44.789A14.947,14.947,0,0,1,246.156,269.452Zm-7.465-55.987v41.057a7.465,7.465,0,0,0,14.93,0V213.465Z" transform="translate(-39.955 -38.04)" fill="#2f2e41"/>
      <path id="Path_236" data-name="Path 236" d="M246.958,210.522a3.733,3.733,0,0,1-3.732-3.732V165.732a3.732,3.732,0,0,1,7.465,0v41.057A3.733,3.733,0,0,1,246.958,210.522Z" transform="translate(-40.758 -35.097)" fill="#2f2e41"/>
      <path id="Path_237" data-name="Path 237" d="M242.691,138h7.465l7.465,18.662-11.146,11.147-11.249-11.147Z" transform="translate(-40.223 -33.492)" fill="#b5a19c"/>
      <g id="Group_12" data-name="Group 12" transform="translate(12.114 100.776)">
        <path id="Path_238" data-name="Path 238" d="M246.207,171.273a3.729,3.729,0,0,1-2.628-1.081l-11.249-11.146a3.736,3.736,0,0,1-.838-4.039l7.465-18.662A3.736,3.736,0,0,1,242.424,134h7.465a3.737,3.737,0,0,1,3.466,2.346l7.465,18.662a3.734,3.734,0,0,1-.828,4.025L248.847,170.18a3.72,3.72,0,0,1-2.64,1.094Zm-6.863-15.788,6.851,6.788,6.78-6.778-5.614-14.03h-2.409Z" transform="translate(-52.069 -134)" fill="#2f2e41"/>
        <path id="Path_239" data-name="Path 239" d="M50.423,195.592a3.733,3.733,0,0,1-3.732-3.732V175.712l-6.549-7.53a3.732,3.732,0,1,1,5.632-4.9l7.465,8.584a3.735,3.735,0,0,1,.916,2.449v17.543A3.733,3.733,0,0,1,50.423,195.592Z" transform="translate(-39.226 -135.873)" fill="#2f2e41"/>
        <path id="Path_240" data-name="Path 240" d="M50.958,176.93a3.732,3.732,0,0,1-2.639-6.371l7.465-7.465a3.732,3.732,0,0,1,5.278,5.278L53.6,175.836A3.72,3.72,0,0,1,50.958,176.93Z" transform="translate(-39.761 -135.873)" fill="#2f2e41"/>
        <path id="Path_241" data-name="Path 241" d="M94.958,272.127a3.733,3.733,0,0,1-3.732-3.732V249.732a3.732,3.732,0,0,1,7.465,0v18.662A3.733,3.733,0,0,1,94.958,272.127Z" transform="translate(-42.704 -141.492)" fill="#2f2e41"/>
        <path id="Path_242" data-name="Path 242" d="M186.958,272.127a3.733,3.733,0,0,1-3.732-3.732V249.732a3.732,3.732,0,0,1,7.465,0v18.662A3.733,3.733,0,0,1,186.958,272.127Z" transform="translate(-48.858 -141.492)" fill="#2f2e41"/>
      </g>
      <path id="Path_243" data-name="Path 243" d="M154.042,187.217a14.882,14.882,0,0,1-14.815,13.794l18.662,26.127,13.552-32.012Z" transform="translate(-33.801 -36.784)" fill="#3f3d56"/>
      <path id="Path_244" data-name="Path 244" d="M157.621,230.6a3.733,3.733,0,0,1-3.038-1.564L135.92,202.912a3.733,3.733,0,0,1,3.038-5.9,11.211,11.211,0,0,0,11.094-10.346,3.732,3.732,0,0,1,5.267-3.113l17.4,7.91a3.73,3.73,0,0,1,1.891,4.851l-13.552,32.012a3.734,3.734,0,0,1-3.027,2.256,4.044,4.044,0,0,1-.41.021Zm-12.24-27.29,11.4,15.963,9.535-22.524-9.916-4.509a18.824,18.824,0,0,1-11.021,11.07Z" transform="translate(-33.534 -36.516)" fill="#2f2e41"/>
      <path id="Path_245" data-name="Path 245" d="M136.917,201.011A14.882,14.882,0,0,1,122.1,187.217l-17.4,7.909,13.552,32.012Z" transform="translate(-31.492 -36.784)" fill="#3f3d56"/>
      <path id="Path_246" data-name="Path 246" d="M117.987,230.6a4.054,4.054,0,0,1-.41-.021,3.734,3.734,0,0,1-3.027-2.256L101,196.313a3.731,3.731,0,0,1,1.891-4.851l17.4-7.91a3.732,3.732,0,0,1,5.266,3.113,11.211,11.211,0,0,0,11.094,10.346,3.733,3.733,0,0,1,3.038,5.9l-18.662,26.127a3.732,3.732,0,0,1-3.038,1.564Zm-8.7-33.85,9.535,22.524,11.4-15.963a18.825,18.825,0,0,1-11.021-11.07Z" transform="translate(-31.224 -36.516)" fill="#2f2e41"/>
      <path id="Path_247" data-name="Path 247" d="M173.621,249.465H154.958a3.732,3.732,0,1,1,0-7.465h18.662a3.732,3.732,0,1,1,0,7.465Z" transform="translate(-34.604 -40.448)" fill="#2f2e41"/>
      <path id="Path_248" data-name="Path 248" d="M138.958,268.916a3.733,3.733,0,0,1-3.732-3.732V201.732a3.732,3.732,0,1,1,7.465,0v63.452A3.733,3.733,0,0,1,138.958,268.916Z" transform="translate(-33.534 -37.505)" fill="#2f2e41"/>
    </g>
    <ellipse id="Ellipse_93" data-name="Ellipse 93" cx="112.733" cy="14.289" rx="112.733" ry="14.289" transform="translate(419.628 243.919)" fill="#3f3d56"/>
    <ellipse id="Ellipse_94" data-name="Ellipse 94" cx="100.032" cy="10.023" rx="100.032" ry="10.023" transform="translate(432.329 245.523)" opacity="0.1"/>
    <rect id="Rectangle_86" data-name="Rectangle 86" width="5.897" height="89.639" transform="translate(477.074 170.769)" fill="#3f3d56"/>
    <path id="Path_329" data-name="Path 329" d="M144.7,417.57v2.359l-96.126,1.179V418.75l.136-.089,16.967-11.116h71.357Z" transform="translate(385.076 -249.042)" fill="#3f3d56"/>
    <path id="Path_330" data-name="Path 330" d="M481.453,441.813s-21.23,1.769-14.154,7.077,14.154-3.538,14.154-3.538Z" transform="translate(30.919 -287.43)" fill="#ffb9b9"/>
    <path id="Path_331" data-name="Path 331" d="M144.7,442.521v2.288l-96.126,1.179V443.63l.136-.089Z" transform="translate(385.076 -273.927)" opacity="0.1"/>
    <path id="Path_332" data-name="Path 332" d="M546.931,336.936l.516-1.936s-7,12.551-7.593,13.731-10.615,11.2-11.795,12.974a12.049,12.049,0,0,1-2.949,2.949h-11.2s-2.359,7.666,1.179,8.256,14.743,2.949,17.1,2.949,17.1-13.564,17.1-13.564Z" transform="translate(-2.804 -211.43)" fill="#575a89"/>
    <path id="Path_333" data-name="Path 333" d="M432.107,586.464,428.569,636h3.538l4.128-50.717Z" transform="translate(114.305 -375.594)" fill="#3f3d56"/>
    <path id="Path_334" data-name="Path 334" d="M581.245,566.034l-3.538,49.537h3.538l4.128-50.717Z" transform="translate(8.056 -361.061)" fill="#3f3d56"/>
    <path id="Path_335" data-name="Path 335" d="M603.718,586.464,600.18,636h3.538l4.128-50.717Z" transform="translate(-7.954 -375.594)" fill="#3f3d56"/>
    <path id="Path_336" data-name="Path 336" d="M413.72,570.12l-3.538,49.537h3.538l4.128-50.717Z" transform="translate(127.405 -363.968)" fill="#3f3d56"/>
    <path id="Path_337" data-name="Path 337" d="M487.942,354.427l-10.025,71.947-59.563-2.359.4-6.64.779-12.821,46,2.359,7.667-52.486Z" transform="translate(121.41 -211.283)" fill="#3f3d56"/>
    <path id="Path_338" data-name="Path 338" d="M685.5,403l-10.025,71.947-59.563-2.359.4-6.64c12.432.478,54.444-2.206,54.444-2.206,0-9.412,8.268-46.258,11.606-60.742Z" transform="translate(-76.146 -259.852)" opacity="0.1"/>
    <path id="Path_339" data-name="Path 339" d="M481.174,705.359s-1.769,13.564-5.308,15.923,14.743,5.308,14.743,5.308L491.79,708.9Z" transform="translate(24.108 -475.027)" fill="#ffb9b9"/>
    <path id="Path_340" data-name="Path 340" d="M701.716,714.163s2.949,3.538,3.538,5.9,9.436,3.538,9.436,3.538l6.487-7.077s-8.256-7.077-10.615-7.077S701.716,714.163,701.716,714.163Z" transform="translate(-137.134 -477.934)" fill="#ffb9b9"/>
    <circle id="Ellipse_95" data-name="Ellipse 95" cx="14.154" cy="14.154" r="14.154" transform="translate(534.899 86.343)" fill="#ffb9b9"/>
    <path id="Path_341" data-name="Path 341" d="M634.3,268.421s7.077,13.564,5.9,15.923,15.333-11.2,15.333-11.2-5.9-9.436-5.9-12.384S634.3,268.421,634.3,268.421Z" transform="translate(-89.103 -158.213)" fill="#ffb9b9"/>
    <path id="Path_342" data-name="Path 342" d="M518.679,522.4s-45.409-7.077-47.178,9.436-8.256,37.743-8.846,39.512,19.461,11.795,21.82,8.256,6.487-31.845,5.308-34.2-1.769-5.307.59-4.718,28.307,5.9,33.615,4.128,18.871-25.359,18.871-25.359Z" transform="translate(33.082 -342.728)" fill="#2f2e41"/>
    <path id="Path_343" data-name="Path 343" d="M518.679,522.4s-45.409-7.077-47.178,9.436-8.256,37.743-8.846,39.512,19.461,11.795,21.82,8.256,6.487-31.845,5.308-34.2-1.769-5.307.59-4.718,28.307,5.9,33.615,4.128,18.871-25.359,18.871-25.359Z" transform="translate(33.082 -342.728)" opacity="0.1"/>
    <path id="Path_344" data-name="Path 344" d="M607.577,507.841l1.769,14.743S581.039,533.2,591.654,550.3s22.41,26.538,22.41,26.538,18.871-10.615,18.871-13.564-23-19.461-20.051-19.461,45.409-2.359,36.563-25.948S607.577,507.841,607.577,507.841Z" transform="translate(-57.129 -331.765)" fill="#2f2e41"/>
    <path id="Path_345" data-name="Path 345" d="M433.83,751.969s-4.718-5.307-4.718-4.128-13.564,8.256-15.923,8.846-5.9,1.769-1.179,3.538,34.794,2.359,34.794,1.18,1.179-12.384-1.179-11.2S434.419,754.328,433.83,751.969Z" transform="translate(70.912 -505.125)" fill="#2f2e41"/>
    <path id="Path_346" data-name="Path 346" d="M689.477,732.19s-6.487-1.769-7.077,0-1.179,8.846-6.487,11.2-7.077,5.9,0,6.487,26.538-12.974,26.538-15.333-2.359-9.436-3.538-8.846S694.784,731.6,689.477,732.19Z" transform="translate(-115.456 -489.474)" fill="#2f2e41"/>
    <rect id="Rectangle_87" data-name="Rectangle 87" width="27.128" height="10.615" transform="translate(466.48 250.383)" fill="#3f3d56"/>
    <path id="Path_347" data-name="Path 347" d="M645.4,284.067s-2.207-5.9-6.116-2.362-11.576,12.387-11.576,12.387-4.718,1.769-6.487,4.718-1.769,22.41,1.769,28.9,3.538,17.692,4.718,20.641,0,5.9,4.128,5.9-2.359-4.718,11.2,0,28.9,10.615,30.076,6.487-1.769-6.487,0-8.256,0-2.359-1.179-6.487-2.359-4.718-2.949-10.025,0-10.615-1.179-12.974-1.179-5.9-1.179-11.795-3.538-17.692-10.025-21.23S645.4,284.067,645.4,284.067Z" transform="translate(-79.045 -172.718)" fill="#575a89"/>
    <path id="Path_348" data-name="Path 348" d="M593.946,179.069c3.287-3.209,6.742-6.521,11.118-7.919,5.841-1.865,12.353.092,17.381,3.6a8.936,8.936,0,0,1,2.8,2.765,10.192,10.192,0,0,1,1,3.48,55.006,55.006,0,0,1,.888,12.758,22.079,22.079,0,0,1-4.206,11.915,24.607,24.607,0,0,1-5.243-8.637,6.856,6.856,0,0,0-1.17-2.413,1.984,1.984,0,0,0-2.423-.541c-1.052.677-.92,2.486-2.031,3.062a1.932,1.932,0,0,1-1.214.127c-2.9-.5-3.9-4.047-5.79-6.3-2.778-3.323-6.668-3.113-10.464-4.068C590.183,185.787,591.274,181.678,593.946,179.069Z" transform="translate(-58.723 -94.3)" fill="#2f2e41"/>
    <ellipse id="Ellipse_96" data-name="Ellipse 96" cx="12.122" cy="2.635" rx="12.122" ry="2.635" transform="translate(499.313 159.326)" fill="#178f09"/>
    <path id="Path_349" data-name="Path 349" d="M512.674,361.679l-.237-12.548c-.053-2.807.047-5.989,2.134-7.867,1.319-1.187,3.3-1.7,4.129-3.266a5.992,5.992,0,0,0,.457-2.832l-.033-17.08" transform="translate(-2.248 -199.394)" fill="none" stroke="#178f09" stroke-miterlimit="10" stroke-width="6"/>
    <rect id="Rectangle_88" data-name="Rectangle 88" width="5.622" height="10.893" rx="2.811" transform="translate(513.693 113.346)" fill="#178f09"/>
    <path id="Path_350" data-name="Path 350" d="M538.138,453.274s-19.546-5.185-21.14-.725,16.687,8.588,16.687,8.588h7.667Z" transform="translate(-5.464 -293.783)" fill="#ffb9b9"/>
    <path id="Path_351" data-name="Path 351" d="M625.828,325.363s-8.846,6.487-11.2,15.923-4.128,19.461-4.128,19.461l-27.128,3.538s-2.359,9.436,1.179,10.025,30.076,2.359,34.2,0,18.282-31.845,17.692-34.794S634.674,325.953,625.828,325.363Z" transform="translate(-52.349 -204.577)" fill="#575a89"/>
    <path id="Path_352" data-name="Path 352" d="M360.427,449.2l9.582.769,13.664-.887-.238-.022-12.657-1.22c-2.9-1.065-.887-7.335-.887-7.335l-9.7.493-.771.039C355.991,449.082,360.427,449.2,360.427,449.2Z" transform="translate(107.667 -286.5)" fill="#d1d9ec"/>
    <path id="Path_353" data-name="Path 353" d="M360.427,450.415l9.582.769,13.664-.887-.238-.023-13.81.5-9.257-1.006c-2.626-.691-1.123-5.251-.175-7.551l-.771.039C355.991,450.3,360.427,450.415,360.427,450.415Z" transform="translate(107.667 -287.716)" opacity="0.1"/>
    <path id="Path_354" data-name="Path 354" d="M310.408,265.434l2.87,41.613v5.022c.088,1.262.688,3.46,1.954,3.452l2.351-2.017h42.331c.729,0-1.721-1.069-1.794-1.794l2.969-1.55-3.107-30.513a2.543,2.543,0,0,0-1.7-2.145L314.231,262.94a3.964,3.964,0,0,0-3.8.438C309.808,263.9,310.336,264.4,310.408,265.434Z" transform="translate(141.992 -159.951)" fill="#4c4c56"/>
    <path id="Path_355" data-name="Path 355" d="M318.134,418.944l.384,5.518a2.4,2.4,0,0,0,2.406,2.23l.89-.006,44.124-.267a1.238,1.238,0,0,0,1.223-1.36l-.38-3.727Z" transform="translate(136.3 -271.155)" fill="#dfe6f5"/>
    <ellipse id="Ellipse_97" data-name="Ellipse 97" cx="0.592" cy="1.183" rx="0.592" ry="1.183" transform="translate(483.193 151.173)" fill="#fff"/>
    <path id="Path_356" data-name="Path 356" d="M307.893,469.386s-12.067-4.555-15.32-1.242c0,0-.532,1.006,1.656,1.242l8.843.71S306.71,470.451,307.893,469.386Z" transform="translate(154.523 -305.307)" fill="#d1d9ec"/>
    <path id="Path_357" data-name="Path 357" d="M309.994,466.47c-2.37-.968-9.506-3.474-14.071-.7,0,0,5.052-.56,7.828,1.045s6.566.841,6.566.841l.057-.1a.766.766,0,0,0-.379-1.084Z" transform="translate(152.099 -303.575)" fill="#dfe6f5"/>
    <path id="Path_358" data-name="Path 358" d="M307.942,267.492l3.314,47.565a2.4,2.4,0,0,0,2.406,2.23l.89-.006a8.518,8.518,0,0,1-1.543-1.991s-3.253-47.793-3.49-48.976a2.409,2.409,0,0,0-.657-1.17A2.679,2.679,0,0,0,307.942,267.492Z" transform="translate(143.563 -161.717)" fill="#dfe6f5"/>
    <path id="Path_359" data-name="Path 359" d="M307.942,267.492l3.314,47.565a2.4,2.4,0,0,0,2.406,2.23l.89-.006a8.518,8.518,0,0,1-1.543-1.991s-3.253-47.793-3.49-48.976a2.409,2.409,0,0,0-.657-1.17A2.679,2.679,0,0,0,307.942,267.492Z" transform="translate(143.563 -161.717)" opacity="0.1"/>
    <path id="Path_360" data-name="Path 360" d="M345.595,350.351a30.031,30.031,0,0,1-5.3,2.7,6,6,0,0,1-3.747.507c-1.235-.351-2.248-1.736-1.755-2.921a2.177,2.177,0,0,1,1.794-1.229,3.853,3.853,0,0,1,2.188.518,6.4,6.4,0,0,1,2.769,2.938,4.737,4.737,0,0,0,1.056,1.817,3.448,3.448,0,0,0,1.5.582,10.712,10.712,0,0,0,3.815.357,3.637,3.637,0,0,0,2.968-2.154" transform="translate(124.385 -221.659)" fill="none" stroke="#f2f2f2" stroke-miterlimit="10" stroke-width="2"/>
    <path id="Path_361" data-name="Path 361" d="M404.693,335.217q-.363,5.717-1.181,11.394l2.744-.268c1.011-.1,2.169-.285,2.7-1.151a2.266,2.266,0,0,0-.449-2.609,6.634,6.634,0,0,0-2.417-1.451l-1.431-.6" transform="translate(75.346 -211.57)" fill="none" stroke="#f2f2f2" stroke-miterlimit="10" stroke-width="2"/>
    <path id="Path_362" data-name="Path 362" d="M442.215,353.32a9.536,9.536,0,0,0-2.961-.358,3.3,3.3,0,0,0-2.539,1.38c-.98,1.562.117,3.693,1.658,4.707a6.7,6.7,0,0,0,4.34,1.056" transform="translate(51.956 -224.183)" fill="none" stroke="#f2f2f2" stroke-miterlimit="10" stroke-width="2"/>
    <g id="Group_21" data-name="Group 21">
      <path id="Path_363" data-name="Path 363" d="M-3167.924-840.309v64.324h58.688v60.318h182.585v143.459H-2988.6V-523.3h-37.5" transform="translate(3281 1050)" fill="none" stroke="#178f09" stroke-width="2"/>
      <path id="Path_364" data-name="Path 364" d="M-2926.651-642.307h44.016V-904.772h53.8" transform="translate(3281 1050)" fill="none" stroke="#178f09" stroke-width="2"/>
      <path id="Path_365" data-name="Path 365" d="M-2903.828-642.307v141.829h53.8" transform="translate(3281 1050)" fill="none" stroke="#178f09" stroke-width="2"/>
    </g>
  </g>
</svg>
